<?xml version="1.0" standalone="no"?><!DOCTYPE svg PUBLIC "-//W3C//DTD SVG 1.1//EN" "http://www.w3.org/Graphics/SVG/1.1/DTD/svg11.dtd"><svg t="1554626529012" class="icon" style="" viewBox="0 0 1024 1024" version="1.1" xmlns="http://www.w3.org/2000/svg" p-id="3217" xmlns:xlink="http://www.w3.org/1999/xlink" width="200" height="200"><defs><style type="text/css"></style></defs><path d="M447.5 691.8c-6.6 0-13.3-2.2-18.8-6.8L299.8 577.6c-12.5-10.4-14.1-28.9-3.8-41.4 10.4-12.5 28.9-14.2 41.4-3.8l128.9 107.4c12.5 10.4 14.1 28.9 3.8 41.4-5.8 7-14.2 10.6-22.6 10.6z" p-id="3218"></path><path d="M447.8 691.7c-7.5 0-15-2.9-20.8-8.6-11.5-11.5-11.5-30.1 0-41.6l257.5-257.7c11.5-11.5 30.1-11.5 41.6 0s11.5 30.1 0 41.6L468.6 683.1c-5.8 5.7-13.3 8.6-20.8 8.6z" p-id="3219"></path><path d="M512 927.9C282.5 927.9 95.8 741.3 95.8 512S282.5 96.1 512 96.1 928.2 282.7 928.2 512 741.5 927.9 512 927.9z m0-773c-197.1 0-357.4 160.2-357.4 357.1S314.9 869.1 512 869.1 869.4 708.9 869.4 512 709.1 154.9 512 154.9z" p-id="3220"></path></svg>